<svg width="15" height="17" viewBox="0 0 15 17" fill="none" xmlns="http://www.w3.org/2000/svg">
<path fill-rule="evenodd" clip-rule="evenodd" d="M4.53448 0.75C4.53448 0.335786 4.87027 0 5.28448 0H10.2155C10.6297 0 10.9655 0.335786 10.9655 0.75V2.5H14.25C14.6642 2.5 15 2.83579 15 3.25C15 3.66421 14.6642 4 14.25 4H1.25C0.835786 4 0.5 3.66421 0.5 3.25C0.5 2.83579 0.835786 2.5 1.25 2.5H4.53448V0.75ZM6.03448 2.5H9.46552V1.5H6.03448V2.5Z" fill="#646464"/>
<path fill-rule="evenodd" clip-rule="evenodd" d="M2.25 4.5C2.66421 4.5 3 4.83579 3 5.25V13.25C3 14.4926 4.00736 15.5 5.25 15.5H10.25C11.4926 15.5 12.5 14.4926 12.5 13.25V5.25C12.5 4.83579 12.8358 4.5 13.25 4.5C13.6642 4.5 14 4.83579 14 5.25V13.25C14 15.3211 12.3211 17 10.25 17H5.25C3.17893 17 1.5 15.3211 1.5 13.25V5.25C1.5 4.83579 1.83579 4.5 2.25 4.5Z" fill="#646464"/>
<path fill-rule="evenodd" clip-rule="evenodd" d="M6.25 6.5C6.66421 6.5 7 6.83579 7 7.25V12.25C7 12.6642 6.66421 13 6.25 13C5.83579 13 5.5 12.6642 5.5 12.25V7.25C5.5 6.83579 5.83579 6.5 6.25 6.5ZM9.25 6.5C9.66421 6.5 10 6.83579 10 7.25V12.25C10 12.6642 9.66421 13 9.25 13C8.83579 13 8.5 12.6642 8.5 12.25V7.25C8.5 6.83579 8.83579 6.5 9.25 6.5Z" fill="#646464"/>
</svg>
