<svg width="178" height="100" viewBox="0 0 178 100" fill="none" xmlns="http://www.w3.org/2000/svg">
<rect width="178" height="100" rx="4" fill="#646464"/>
<path d="M24 57.4376H59.6452L71.1774 39.8531L76.4194 52.1885L90.8347 33.5542L107.404 80.5422L117.044 57.4376H154" stroke="#2B2B2B" stroke-width="7" stroke-linecap="round" stroke-linejoin="round"/>
<circle cx="52.1928" cy="30.4217" r="10.9639" fill="#2B2B2B"/>
<circle cx="113.277" cy="30.4217" r="10.9639" fill="#2B2B2B"/>
<path d="M22.7915 75.8795V67.2897H24.479L27.9947 73.026V67.2897H29.606V75.8795H27.8658L24.4029 70.278V75.8795H22.7915ZM31.0943 71.6373C31.0943 70.7623 31.2251 70.028 31.4868 69.4342C31.6822 68.9967 31.9478 68.6041 32.2837 68.2565C32.6236 67.9088 32.9947 67.651 33.397 67.483C33.9322 67.2565 34.5493 67.1432 35.2486 67.1432C36.5142 67.1432 37.5259 67.5358 38.2837 68.3209C39.0454 69.1061 39.4263 70.1979 39.4263 71.5963C39.4263 72.983 39.0493 74.069 38.2954 74.8541C37.5415 75.6354 36.5337 76.026 35.272 76.026C33.9947 76.026 32.979 75.6373 32.2251 74.86C31.4712 74.0787 31.0943 73.0045 31.0943 71.6373ZM32.8814 71.5787C32.8814 72.5514 33.106 73.2897 33.5552 73.7936C34.0044 74.2936 34.5747 74.5436 35.2661 74.5436C35.9576 74.5436 36.524 74.2955 36.9654 73.7994C37.4107 73.2994 37.6333 72.5514 37.6333 71.5553C37.6333 70.5709 37.4165 69.8366 36.9829 69.3522C36.5533 68.8678 35.981 68.6256 35.2661 68.6256C34.5513 68.6256 33.9751 68.8717 33.5376 69.3639C33.1001 69.8522 32.8814 70.5905 32.8814 71.5787ZM42.7193 75.8795V68.7428H40.1704V67.2897H46.9966V68.7428H44.4536V75.8795H42.7193ZM51.4732 75.8795V67.2897H57.3618V68.7428H53.2076V70.776H56.7935V72.2291H53.2076V75.8795H51.4732ZM58.4458 71.6373C58.4458 70.7623 58.5767 70.028 58.8384 69.4342C59.0337 68.9967 59.2993 68.6041 59.6353 68.2565C59.9751 67.9088 60.3462 67.651 60.7486 67.483C61.2837 67.2565 61.9009 67.1432 62.6001 67.1432C63.8658 67.1432 64.8775 67.5358 65.6353 68.3209C66.397 69.1061 66.7779 70.1979 66.7779 71.5963C66.7779 72.983 66.4009 74.069 65.647 74.8541C64.8931 75.6354 63.8853 76.026 62.6236 76.026C61.3462 76.026 60.3306 75.6373 59.5767 74.86C58.8228 74.0787 58.4458 73.0045 58.4458 71.6373ZM60.2329 71.5787C60.2329 72.5514 60.4576 73.2897 60.9068 73.7936C61.356 74.2936 61.9263 74.5436 62.6177 74.5436C63.3091 74.5436 63.8755 74.2955 64.3169 73.7994C64.7622 73.2994 64.9849 72.5514 64.9849 71.5553C64.9849 70.5709 64.7681 69.8366 64.3345 69.3522C63.9048 68.8678 63.3326 68.6256 62.6177 68.6256C61.9029 68.6256 61.3267 68.8717 60.8892 69.3639C60.4517 69.8522 60.2329 70.5905 60.2329 71.5787ZM68.1255 67.2897H69.8599V71.942C69.8599 72.6803 69.8814 73.1588 69.9243 73.3776C69.9986 73.7291 70.1743 74.0123 70.4517 74.2272C70.7329 74.4381 71.1158 74.5436 71.6001 74.5436C72.0923 74.5436 72.4634 74.444 72.7134 74.2448C72.9634 74.0416 73.1138 73.7936 73.1646 73.5006C73.2154 73.2076 73.2408 72.7213 73.2408 72.0416V67.2897H74.9751V71.8014C74.9751 72.8326 74.9283 73.5612 74.8345 73.9869C74.7408 74.4127 74.5669 74.7721 74.313 75.0651C74.063 75.358 73.7271 75.5924 73.3052 75.7682C72.8833 75.9401 72.3326 76.026 71.6529 76.026C70.8326 76.026 70.2095 75.9323 69.7837 75.7448C69.3618 75.5534 69.0279 75.3073 68.7818 75.0065C68.5357 74.7018 68.3736 74.3834 68.2954 74.0514C68.1822 73.5592 68.1255 72.8326 68.1255 71.8717V67.2897ZM76.8267 75.8795V67.2897H78.5142L82.0298 73.026V67.2897H83.6411V75.8795H81.9009L78.438 70.278V75.8795H76.8267ZM85.4751 67.2897H88.6451C89.3599 67.2897 89.9048 67.3444 90.2798 67.4537C90.7837 67.6022 91.2154 67.8659 91.5747 68.2448C91.9341 68.6237 92.2076 69.0885 92.3951 69.6393C92.5826 70.1862 92.6763 70.8619 92.6763 71.6666C92.6763 72.3737 92.5884 72.983 92.4126 73.4948C92.1978 74.1198 91.8911 74.6256 91.4927 75.0123C91.1919 75.3053 90.7857 75.5338 90.274 75.6979C89.8911 75.819 89.3794 75.8795 88.7388 75.8795H85.4751V67.2897ZM87.2095 68.7428V74.4323H88.5044C88.9888 74.4323 89.3384 74.4049 89.5533 74.3502C89.8345 74.2799 90.0669 74.1608 90.2505 73.9928C90.438 73.8248 90.5904 73.5494 90.7076 73.1666C90.8247 72.7799 90.8833 72.2545 90.8833 71.5905C90.8833 70.9264 90.8247 70.4166 90.7076 70.0612C90.5904 69.7057 90.4263 69.4284 90.2154 69.2291C90.0044 69.0299 89.7368 68.8951 89.4126 68.8248C89.1704 68.7701 88.6958 68.7428 87.9888 68.7428H87.2095Z" fill="#2B2B2B"/>
</svg>
